<?xml version="1.0" encoding="UTF-8"?>
<svg width="752pt" height="752pt" version="1.1" viewBox="0 0 752 752" xmlns="http://www.w3.org/2000/svg">
 <path d="m520.91 504.98-83.453-83.465c37.648-45.699 35.145-113.61-7.5664-156.34-22-22-51.258-34.109-82.371-34.109-31.109 0-60.371 12.109-82.371 34.109-45.406 45.43-45.395 119.32 0 164.73 22 22 51.258 34.109 82.371 34.109 27.32 0 53.199-9.3594 74.004-26.543l83.43 83.441zm-239.81-91.016c-36.613-36.625-36.613-96.215 0-132.84 17.738-17.727 41.336-27.5 66.426-27.5 25.09 0 48.676 9.7773 66.426 27.5 36.613 36.625 36.613 96.215 0 132.84-17.738 17.727-41.336 27.5-66.426 27.5-25.09 0-48.688-9.7773-66.426-27.5z"/>
</svg>
